<svg width="12" height="9" viewBox="0 0 12 9" fill="none" xmlns="http://www.w3.org/2000/svg">
<path fill-rule="evenodd" clip-rule="evenodd" d="M5.25 4.50281C5.25 4.27774 5.15667 4.06393 4.99333 3.90638L1.00917 0.164582C0.781666 -0.0548611 0.408333 -0.0548611 0.175 0.164582C-0.0525004 0.384027 -0.0525003 0.738512 0.175 0.957955L3.94917 4.50281L0.175 8.04204C-0.0583334 8.26149 -0.0583334 8.61597 0.175 8.83542C0.408333 9.05486 0.775833 9.05486 1.00917 8.83542L4.99333 5.09362C5.15667 4.9417 5.25 4.72788 5.25 4.50281Z" fill="white"/>
<path fill-rule="evenodd" clip-rule="evenodd" d="M12 4.50281C12 4.27774 11.9067 4.06393 11.7433 3.90638L7.75917 0.164582C7.53167 -0.0548611 7.15833 -0.0548611 6.925 0.164582C6.6975 0.384027 6.6975 0.738512 6.925 0.957955L10.6992 4.50281L6.925 8.04204C6.69167 8.26149 6.69167 8.61597 6.925 8.83542C7.15833 9.05486 7.52583 9.05486 7.75917 8.83542L11.7433 5.09362C11.9067 4.9417 12 4.72788 12 4.50281Z" fill="white"/>
</svg>
