<svg width="14" height="25" viewBox="0 0 14 25" fill="none" xmlns="http://www.w3.org/2000/svg">
<path opacity="0.4" d="M14 12.5C14 14.7998 12.4331 16.665 10.501 16.665C8.569 16.665 7.00205 14.7998 7.00205 12.5C7.00205 10.2002 8.569 8.33496 10.501 8.33496C12.4331 8.33496 14 10.2002 14 12.5ZM10.501 8.33496C12.4331 8.33496 14 6.46973 14 4.16992C14 1.87012 12.4331 0 10.501 0H3.49897C1.56695 0 0 1.86523 0 4.16504C0 6.46484 1.56695 8.33008 3.49897 8.33008C1.56695 8.33496 0 10.2002 0 12.5C0 14.7998 1.56695 16.665 3.49897 16.665C1.56695 16.665 0 18.5303 0 20.835C0 23.1396 1.56695 25 3.49897 25C5.431 25 6.99795 23.1348 6.99795 20.835V8.33496H10.501Z" fill="white"/>
</svg>
