<svg width="88" height="30" viewBox="0 0 88 30" fill="none" xmlns="http://www.w3.org/2000/svg">
<path d="M24.7745 15.0045C24.7745 17.0674 24.4016 18.9782 23.6203 20.7771C22.8035 22.6163 21.7603 24.1871 20.4197 25.5743C19.0791 26.9257 17.4811 28.0131 15.661 28.8007C13.8765 29.5883 11.9411 30 9.89469 30H0L4.94512 24.9746H9.89025C11.2664 24.9746 12.567 24.7106 13.7567 24.2229C14.9463 23.6993 16.025 22.9878 16.9173 22.048C17.8095 21.1083 18.5154 20.0612 19.0392 18.8619C19.5585 17.6223 19.8204 16.3514 19.8204 15C19.8204 13.6486 19.5585 12.3777 19.0392 11.1381C18.5198 9.93884 17.8095 8.88723 16.8818 7.95197C15.9895 7.05251 14.9108 6.30072 13.7212 5.77715C12.5315 5.28938 11.2308 5.02536 9.89025 5.02536H4.94512L0 0H9.89469C11.9411 0 13.8366 0.411694 15.661 1.19928C17.4455 1.98687 19.0436 3.07428 20.3842 4.42572C21.7603 5.81295 22.8035 7.38813 23.6203 9.22285C24.4016 11.0307 24.7745 12.946 24.7745 15.0045Z" fill="white"/>
<path d="M53.2228 21.5961L58.168 23.2473C57.4977 24.2587 56.7164 25.1984 55.7886 26.0218C54.8964 26.8452 53.9286 27.5567 52.8499 28.1608C51.8068 28.7604 50.6926 29.2124 49.4674 29.5122C48.2777 29.8479 47.0481 30 45.7474 30C41.6191 30 38.1611 28.5009 35.2579 25.5743C32.3548 22.6477 30.8677 19.1617 30.8677 15C30.8677 10.8741 32.3192 7.35233 35.2579 4.42572C38.1211 1.46331 41.6191 0 45.7474 0C47.7938 0 49.7248 0.375895 51.5493 1.16348C53.3338 1.95107 54.9319 3.03849 56.308 4.42572L52.739 7.95197C50.8035 6.0009 48.4997 5.02536 45.7474 5.02536C43.0307 5.02536 40.6869 5.96062 38.7159 7.95197C36.7805 9.90304 35.8528 12.2658 35.8528 15C35.8528 17.7387 36.7805 20.1372 38.7159 22.0883C40.6514 24.0394 43.0307 24.9746 45.7474 24.9746C47.2345 24.9746 48.6106 24.6748 49.8758 24.111C51.1409 23.5069 52.2551 22.6835 53.2228 21.5961ZM45.7474 12.5209H58.168L53.2228 17.5104H45.7474V12.5209Z" fill="white"/>
<path d="M66.2789 24.9702L63.7486 29.9955H58.2441L73.1195 0L83.0541 20.0209H77.4742L73.1239 11.2097L68.7337 20.0209L66.2789 24.9702ZM87.9992 29.9955H82.4593L80.0045 25.0104H85.5089L87.9992 29.9955Z" fill="white"/>
</svg>
