<svg width="280" height="25" viewBox="0 0 280 25" fill="none" xmlns="http://www.w3.org/2000/svg">
<g opacity="0.4">
<path d="M32.0735 4.67128H34.689L39.0831 15.5064L43.0587 4.67128H45.5696L40.0456 18.4236H38.1415L32.0735 4.67128ZM49.3318 18.4236H47.0301V8.83863H49.3318V18.4236ZM46.6953 5.75479C46.6953 5.56101 46.7309 5.37348 46.7999 5.1922C46.8836 5.01092 46.9945 4.85256 47.1347 4.71295C47.2749 4.56084 47.4277 4.44207 47.595 4.35872C47.7771 4.27538 47.9717 4.2337 48.1809 4.2337C48.3755 4.2337 48.5638 4.27538 48.7459 4.35872C48.9279 4.44207 49.0869 4.56084 49.2271 4.71295C49.3799 4.85256 49.4992 5.01092 49.5828 5.1922C49.6665 5.37348 49.7084 5.56101 49.7084 5.75479C49.7084 5.96316 49.6665 6.15694 49.5828 6.33822C49.4992 6.50491 49.3799 6.65702 49.2271 6.79663C49.0869 6.93624 48.9279 7.04667 48.7459 7.13002C48.5638 7.19878 48.3755 7.2342 48.1809 7.2342C47.7771 7.2342 47.4277 7.08834 47.1347 6.79663C46.8418 6.50491 46.6953 6.15694 46.6953 5.75479ZM55.1508 10.2347C54.6904 10.2347 54.3285 10.3243 54.0627 10.5056C53.8116 10.6723 53.6861 10.9161 53.6861 11.2349C53.6861 11.4432 53.7551 11.637 53.8953 11.8183C54.0481 11.985 54.3619 12.1246 54.8369 12.235L56.3225 12.5684C56.9084 12.6934 57.375 12.8747 57.7244 13.1102C58.0864 13.3456 58.3668 13.604 58.5614 13.8811C58.7707 14.1583 58.9108 14.4437 58.9799 14.7354C59.0489 15.0272 59.0845 15.298 59.0845 15.5481C59.0845 15.9919 58.9945 16.4086 58.8125 16.7983C58.6305 17.1733 58.3731 17.5005 58.0383 17.7776C57.7035 18.0547 57.2997 18.2714 56.8247 18.4236C56.3497 18.5903 55.8203 18.6736 55.2345 18.6736C54.4958 18.6736 53.8116 18.5694 53.1839 18.361C52.5562 18.1381 52.054 17.8964 51.6774 17.6318L52.2214 15.6523C52.6964 16.1107 53.2257 16.4503 53.8116 16.6733C54.4122 16.8962 54.9625 17.0067 55.4646 17.0067C55.994 17.0067 56.3999 16.8962 56.6782 16.6733C56.9565 16.4378 57.0967 16.1169 57.0967 15.7148C57.0967 15.4793 57.0277 15.2835 56.8875 15.1313C56.7473 14.9646 56.469 14.825 56.0505 14.7146L54.0418 14.2145C53.5668 14.1041 53.1776 13.9436 52.87 13.7353C52.5771 13.5269 52.3407 13.2977 52.1586 13.0477C51.9912 12.783 51.872 12.5122 51.8029 12.235C51.7464 11.9579 51.7192 11.6933 51.7192 11.4432C51.7192 10.5118 52.0477 9.79713 52.7026 9.29704C53.3576 8.78238 54.2092 8.52608 55.2554 8.52608C55.7994 8.52608 56.3853 8.60318 57.013 8.75529C57.6408 8.89489 58.1701 9.10326 58.6033 9.38039L57.9965 11.2557C57.7182 11.0327 57.3269 10.8119 56.8247 10.5889C56.3225 10.3535 55.7639 10.2347 55.1508 10.2347ZM63.4912 8.83863V15.0688C63.4912 15.6377 63.6376 16.0753 63.9306 16.3816C64.2381 16.6733 64.6273 16.8191 65.1023 16.8191C65.5898 16.8191 66.0376 16.6587 66.4415 16.3399C66.8453 16.0065 67.1466 15.5335 67.3412 14.923V8.83863H69.6638V18.4236H67.8643L67.7388 17.09H67.6551C67.5023 17.4088 67.3056 17.6734 67.0692 17.8818C66.8327 18.0756 66.567 18.236 66.2741 18.361C65.9958 18.4715 65.7028 18.5486 65.3953 18.5903C65.0877 18.6465 64.7885 18.6736 64.4955 18.6736C64.0352 18.6736 63.6021 18.6173 63.1982 18.5069C62.8069 18.3965 62.4596 18.2152 62.152 17.9651C61.8591 17.7005 61.6226 17.3609 61.4406 16.9441C61.2732 16.5128 61.1895 15.9857 61.1895 15.3605V8.83863H63.4912ZM78.4122 18.4236L78.2448 17.1108H78.1611C77.7845 17.5838 77.2676 17.9651 76.6127 18.2569C75.9703 18.534 75.3154 18.6736 74.6458 18.6736C73.767 18.6736 73.0765 18.4236 72.5743 17.9235C72.0722 17.4088 71.8211 16.7358 71.8211 15.9023C71.8211 15.3335 71.9403 14.825 72.1768 14.3812C72.4279 13.9228 72.7836 13.5415 73.2439 13.2352C73.7043 12.9164 74.2546 12.6726 74.8969 12.5059C75.5393 12.3392 76.257 12.2559 77.0521 12.2559H77.9519V11.9433C77.9519 11.4016 77.7782 11.0057 77.4288 10.7556C77.0668 10.5056 76.5018 10.3806 75.7339 10.3806C74.7023 10.3806 73.7817 10.6098 72.9719 11.0682L72.5325 9.33872C73.4678 8.79696 74.5977 8.52608 75.9222 8.52608C77.3179 8.52608 78.3766 8.81155 79.1027 9.38039C79.4375 9.64502 79.7095 9.98466 79.9187 10.4014C80.1426 10.8181 80.2535 11.3182 80.2535 11.9016V18.4236H78.4122ZM75.5456 16.8191C75.9913 16.8191 76.439 16.7149 76.8847 16.5066C77.3304 16.2836 77.6861 15.9919 77.9519 15.6314V13.7353H77.5543C76.4097 13.7353 75.5728 13.8811 75.0434 14.1729C74.5266 14.4646 74.2692 14.9292 74.2692 15.5689C74.2692 16.4024 74.694 16.8191 75.5456 16.8191ZM85.4615 18.4236H83.1599V3.00433H85.4615V18.4236ZM95.3566 12.1725H91.1718V16.3399H97.177V18.4236H88.7655V4.67128H96.7585V6.75496H91.1718V10.0888H95.3566V12.1725ZM103.281 15.6523L105.959 8.83863H108.177L104.201 18.5069C104.007 18.9924 103.735 19.5342 103.385 20.1322C103.05 20.7427 102.647 21.3136 102.172 21.8408C101.711 22.3825 101.188 22.8347 100.602 23.1952C100.016 23.5702 99.3824 23.7578 98.6982 23.7578C98.5873 23.7578 98.5036 23.7515 98.4471 23.7369C98.3906 23.7369 98.3278 23.7224 98.2588 23.6953L97.8612 21.9033C97.9031 21.9179 97.9512 21.9304 98.0077 21.945C98.0642 21.9596 98.1814 21.9658 98.3634 21.9658C98.6291 21.9658 98.8865 21.9387 99.1376 21.8825C99.4033 21.8262 99.667 21.7158 99.9327 21.5491C100.435 21.2303 100.868 20.7844 101.23 20.2155C101.607 19.6467 101.969 18.9445 102.318 18.111L97.5264 8.83863H99.9327L103.281 15.6523ZM114.157 8.52608C115.385 8.52608 116.333 8.83863 117.003 9.46374C117.672 10.0743 118.007 10.9431 118.007 12.0683C118.007 12.2204 117.992 12.3871 117.965 12.5684C117.951 12.7351 117.923 12.9018 117.881 13.0685C117.854 13.2352 117.812 13.3873 117.756 13.5269C117.714 13.6519 117.666 13.7561 117.609 13.8395H111.521C111.548 14.2562 111.625 14.6521 111.751 15.0272C111.876 15.3876 112.058 15.7085 112.295 15.9857C112.531 16.2503 112.818 16.4649 113.153 16.6316C113.502 16.7837 113.906 16.8608 114.366 16.8608C114.883 16.8608 115.427 16.7629 115.998 16.5691C116.584 16.3753 117.08 16.1315 117.484 15.8398L117.861 17.5484C117.679 17.6588 117.457 17.7839 117.191 17.9235C116.925 18.0485 116.626 18.1673 116.291 18.2777C115.956 18.3881 115.594 18.4798 115.203 18.5486C114.827 18.6319 114.429 18.6736 114.011 18.6736C113.23 18.6736 112.54 18.5423 111.939 18.2777C111.338 18.0006 110.836 17.6318 110.432 17.1733C110.029 16.7004 109.721 16.1586 109.512 15.5481C109.303 14.9376 109.198 14.2979 109.198 13.6311C109.198 12.9497 109.303 12.3038 109.512 11.6933C109.736 11.0682 110.056 10.5202 110.474 10.0472C110.893 9.57417 111.41 9.20745 112.023 8.94282C112.65 8.66569 113.362 8.52608 114.157 8.52608ZM114.094 10.318C113.508 10.318 113.006 10.491 112.588 10.839C112.184 11.1724 111.891 11.6308 111.709 12.2142H115.705C115.72 12.1725 115.726 12.1246 115.726 12.0683C115.741 12.0121 115.747 11.9433 115.747 11.86C115.747 11.4161 115.594 11.0473 115.287 10.7556C114.979 10.4639 114.582 10.318 114.094 10.318ZM123.276 10.2347C122.815 10.2347 122.453 10.3243 122.188 10.5056C121.937 10.6723 121.811 10.9161 121.811 11.2349C121.811 11.4432 121.88 11.637 122.02 11.8183C122.173 11.985 122.487 12.1246 122.962 12.235L124.447 12.5684C125.033 12.6934 125.5 12.8747 125.849 13.1102C126.211 13.3456 126.492 13.604 126.686 13.8811C126.896 14.1583 127.036 14.4437 127.105 14.7354C127.174 15.0272 127.209 15.298 127.209 15.5481C127.209 15.9919 127.12 16.4086 126.937 16.7983C126.755 17.1733 126.498 17.5005 126.163 17.7776C125.828 18.0547 125.425 18.2714 124.95 18.4236C124.475 18.5903 123.945 18.6736 123.359 18.6736C122.621 18.6736 121.937 18.5694 121.309 18.361C120.681 18.1381 120.179 17.8964 119.802 17.6318L120.346 15.6523C120.821 16.1107 121.351 16.4503 121.937 16.6733C122.537 16.8962 123.087 17.0067 123.59 17.0067C124.119 17.0067 124.525 16.8962 124.803 16.6733C125.081 16.4378 125.222 16.1169 125.222 15.7148C125.222 15.4793 125.153 15.2835 125.012 15.1313C124.872 14.9646 124.594 14.825 124.175 14.7146L122.167 14.2145C121.692 14.1041 121.303 13.9436 120.995 13.7353C120.702 13.5269 120.466 13.2977 120.284 13.0477C120.116 12.783 119.997 12.5122 119.928 12.235C119.871 11.9579 119.844 11.6933 119.844 11.4432C119.844 10.5118 120.173 9.79713 120.828 9.29704C121.483 8.78238 122.334 8.52608 123.38 8.52608C123.924 8.52608 124.51 8.60318 125.138 8.75529C125.766 8.89489 126.295 9.10326 126.728 9.38039L126.121 11.2557C125.843 11.0327 125.452 10.8119 124.95 10.5889C124.447 10.3535 123.891 10.2347 123.276 10.2347Z" fill="white"/>
<path fill-rule="evenodd" clip-rule="evenodd" d="M19.2091 21.1722C23.5593 16.6923 24.6871 11.5144 22.5967 5.64048C20.2532 0.331267 15.0473 -0.687652 6.97475 2.58372C-1.09571 5.8551 -2.16284 10.8914 3.77544 17.6925C9.71581 24.4936 14.859 25.6521 19.2091 21.1722ZM16.2735 16.6777C19.2991 13.5585 20.0817 9.95369 18.6232 5.86135C16.9953 2.17115 13.3734 1.4627 7.75313 3.73183C2.13289 6.00096 1.39217 9.50571 5.52888 14.244C9.66769 18.9844 13.2478 19.7949 16.2735 16.6777Z" fill="white"/>
<path fill-rule="evenodd" clip-rule="evenodd" d="M13.7654 12.821C15.5942 10.929 16.0608 8.73282 15.1632 6.2324C14.1714 3.99036 11.9701 3.54862 8.5595 4.91135C5.14885 6.27408 4.70526 8.40568 7.2329 11.3062C9.75845 14.2087 11.9367 14.713 13.7654 12.821ZM11.8634 9.88093C12.7109 8.99536 12.9159 7.95769 12.4807 6.76999C12.0036 5.70315 10.9679 5.48228 9.37554 6.10738C7.78321 6.73249 7.58861 7.74099 8.78966 9.12872C9.99071 10.5164 11.0181 10.7686 11.8634 9.88093Z" fill="white"/>
</g>
<path opacity="0.4" d="M170 12.5C170 14.7998 168.433 16.665 166.501 16.665C164.569 16.665 163.002 14.7998 163.002 12.5C163.002 10.2002 164.569 8.33496 166.501 8.33496C168.433 8.33496 170 10.2002 170 12.5ZM166.501 8.33496C168.433 8.33496 170 6.46973 170 4.16992C170 1.87012 168.433 0 166.501 0H159.499C157.567 0 156 1.86523 156 4.16504C156 6.46484 157.567 8.33008 159.499 8.33008C157.567 8.33496 156 10.2002 156 12.5C156 14.7998 157.567 16.665 159.499 16.665C157.567 16.665 156 18.5303 156 20.835C156 23.1396 157.567 25 159.499 25C161.431 25 162.998 23.1348 162.998 20.835V8.33496H166.501Z" fill="white"/>
<path opacity="0.4" d="M218.62 0H204.38C202.953 0 201.585 0.581376 200.576 1.61623C199.567 2.65109 199 4.05465 199 5.51816V19.4818C199 20.9453 199.567 22.3489 200.576 23.3838C201.585 24.4186 202.953 25 204.38 25H218.62C220.047 25 221.415 24.4186 222.424 23.3838C223.433 22.3489 224 20.9453 224 19.4818V5.51816C224 4.05465 223.433 2.65109 222.424 1.61623C221.415 0.581376 220.047 0 218.62 0V0ZM212.259 17.6186H209.877C209.71 17.6186 209.592 17.6122 209.525 17.4979C209.301 17.0502 209.077 16.6058 208.854 16.1645C208.624 15.7105 208.386 15.2603 208.142 14.8141C207.888 14.3522 207.639 13.8874 207.395 13.4199H207.378C207.152 13.8818 206.92 14.3405 206.682 14.7959C206.443 15.2543 206.204 15.7105 205.97 16.1635C205.736 16.6168 205.496 17.067 205.25 17.5139C205.204 17.6175 205.126 17.6282 205.014 17.6282H202.717C202.672 17.6282 202.647 17.6464 202.642 17.6004C202.636 17.5584 202.645 17.5156 202.667 17.4797L205.903 12.0256L202.75 6.55769C202.716 6.51175 202.71 6.47436 202.733 6.44337C202.746 6.42854 202.761 6.41693 202.779 6.4095C202.796 6.40207 202.815 6.39903 202.834 6.40064H205.199C205.25 6.39844 205.302 6.40717 205.35 6.42628C205.39 6.44981 205.424 6.48232 205.45 6.52137C205.651 6.98077 205.875 7.4391 206.121 7.89743C206.367 8.35577 206.616 8.80876 206.867 9.25641C207.118 9.70406 207.35 10.157 207.562 10.6154H207.579C207.801 10.1453 208.027 9.68696 208.258 9.23931C208.49 8.79167 208.724 8.34188 208.962 7.88889C209.203 7.43483 209.434 6.98397 209.658 6.53846C209.671 6.4955 209.694 6.45651 209.725 6.42521C209.767 6.40398 209.813 6.39509 209.859 6.39957H212.056C212.081 6.39341 212.107 6.39746 212.129 6.41085C212.151 6.42424 212.167 6.4459 212.173 6.47115C212.177 6.48931 212.177 6.50837 212.171 6.52614C212.165 6.54391 212.155 6.55966 212.141 6.57158L212.142 6.57585L209.022 11.8568L212.359 17.4647C212.381 17.5043 212.386 17.5502 212.376 17.594C212.366 17.6325 212.327 17.6068 212.259 17.6186V17.6186ZM220.26 17.1699C219.715 17.4028 219.147 17.5758 218.567 17.6859C218.035 17.7871 217.496 17.839 216.955 17.8408C216.184 17.8524 215.419 17.6882 214.717 17.36C214.062 17.0493 213.515 16.5423 213.148 15.906C212.744 15.1636 212.547 14.3218 212.577 13.4722C212.571 12.6827 212.768 11.9055 213.148 11.219C213.54 10.5196 214.115 9.94759 214.809 9.56837C215.686 9.09832 216.673 8.88678 217.66 8.95726C217.75 8.96261 217.856 8.97115 217.979 8.9829V5.59402C217.979 5.51389 218.012 5.47329 218.08 5.47329H220.193C220.216 5.46994 220.24 5.47626 220.259 5.49088C220.278 5.5055 220.29 5.52722 220.294 5.55128C220.295 5.55979 220.295 5.56841 220.294 5.57692V15.7447C220.294 15.9402 220.302 16.1517 220.319 16.3814C220.335 16.61 220.35 16.8162 220.36 17C220.363 17.0354 220.354 17.0706 220.336 17.101C220.318 17.1313 220.292 17.1554 220.26 17.1699V17.1699ZM217.701 10.9605C217.795 10.9701 217.887 10.9872 217.978 11.0118V15.7073C217.858 15.7439 217.734 15.7668 217.609 15.7756C217.464 15.7876 217.319 15.7933 217.173 15.7927C216.879 15.7941 216.588 15.7476 216.308 15.6549C216.044 15.5697 215.803 15.4226 215.604 15.2254C215.396 15.0108 215.236 14.7528 215.134 14.469C215.01 14.1162 214.95 13.7427 214.958 13.3675C214.936 12.8893 215.056 12.4155 215.302 12.0085C215.524 11.6709 215.827 11.3985 216.182 11.2169C216.547 11.032 216.949 10.937 217.356 10.9412C217.472 10.9434 217.586 10.9487 217.701 10.9605Z" fill="white"/>
<path opacity="0.4" d="M254.011 7.26562L253 8.65513H257.943L258.32 1.36161L254.011 7.26562ZM274.155 0.764509L267.131 0L274.543 8.21429L274.155 0.764509V0.764509ZM258.637 10.3962L258.025 9.16853H253.049L265.334 23.7723L258.637 10.3962ZM258.746 8.65513H274.259L269.807 3.71652L266.508 0.0558036L258.746 8.65513ZM274.986 9.16295L267.672 23.7723L279.951 9.16853H274.986V9.16295ZM275.199 2.06473L274.685 1.36161L274.734 2.32701L275.068 8.65513H280L275.199 2.06473ZM258.708 3.43192L258.457 8.20871L265.875 0L258.85 0.764509L258.708 3.43192ZM274.423 9.16295H258.582L260.898 13.7891L266.508 25L274.423 9.16295V9.16295Z" fill="white"/>
</svg>
