<svg width="25" height="25" viewBox="0 0 25 25" fill="none" xmlns="http://www.w3.org/2000/svg">
<path opacity="0.4" d="M19.6198 0H5.38021C3.95329 0 2.58481 0.581376 1.57583 1.61623C0.566842 2.65109 0 4.05465 0 5.51816L0 19.4818C0 20.9453 0.566842 22.3489 1.57583 23.3838C2.58481 24.4186 3.95329 25 5.38021 25H19.6198C21.0467 25 22.4152 24.4186 23.4242 23.3838C24.4332 22.3489 25 20.9453 25 19.4818V5.51816C25 4.05465 24.4332 2.65109 23.4242 1.61623C22.4152 0.581376 21.0467 0 19.6198 0V0ZM13.2594 17.6186H10.8771C10.7104 17.6186 10.5917 17.6122 10.525 17.4979C10.301 17.0502 10.0771 16.6058 9.85417 16.1645C9.62367 15.7105 9.38614 15.2603 9.14167 14.8141C8.88768 14.3522 8.6387 13.8874 8.39479 13.4199H8.37812C8.15235 13.8818 7.92038 14.3405 7.68229 14.7959C7.44271 15.2543 7.20417 15.7105 6.96979 16.1635C6.73563 16.6168 6.49568 17.067 6.25 17.5139C6.20417 17.6175 6.12604 17.6282 6.01354 17.6282H3.71667C3.67187 17.6282 3.64687 17.6464 3.64167 17.6004C3.63564 17.5584 3.64451 17.5156 3.66667 17.4797L6.90312 12.0256L3.75 6.55769C3.71562 6.51175 3.71042 6.47436 3.73333 6.44337C3.74566 6.42854 3.76126 6.41693 3.77883 6.4095C3.79639 6.40207 3.81544 6.39903 3.83437 6.40064H6.19896C6.25049 6.39844 6.30191 6.40717 6.35 6.42628C6.38992 6.44981 6.42411 6.48232 6.45 6.52137C6.65104 6.98077 6.875 7.4391 7.12083 7.89743C7.36667 8.35577 7.61562 8.80876 7.86667 9.25641C8.11771 9.70406 8.35 10.157 8.5625 10.6154H8.57917C8.80104 10.1453 9.02708 9.68696 9.25833 9.23931C9.48958 8.79167 9.72396 8.34188 9.9625 7.88889C10.2031 7.43483 10.4344 6.98397 10.6583 6.53846C10.6708 6.4955 10.6937 6.45651 10.725 6.42521C10.7666 6.40398 10.8131 6.39509 10.8594 6.39957H13.0562C13.081 6.39341 13.1071 6.39746 13.1289 6.41085C13.1507 6.42424 13.1665 6.4459 13.1729 6.47115C13.1773 6.48931 13.1766 6.50837 13.1709 6.52614C13.1652 6.54391 13.1547 6.55966 13.1406 6.57158L13.1417 6.57585L10.0219 11.8568L13.3594 17.4647C13.3812 17.5043 13.3865 17.5502 13.376 17.594C13.3656 17.6325 13.3271 17.6068 13.2594 17.6186V17.6186ZM21.2604 17.1699C20.7152 17.4028 20.1474 17.5758 19.5667 17.6859C19.0351 17.7871 18.4958 17.839 17.9552 17.8408C17.1835 17.8524 16.419 17.6882 15.7167 17.36C15.0624 17.0493 14.5154 16.5423 14.1479 15.906C13.7441 15.1636 13.5466 14.3218 13.5771 13.4722C13.5709 12.6827 13.7678 11.9055 14.1479 11.219C14.5396 10.5196 15.1154 9.94759 15.8094 9.56837C16.6864 9.09832 17.6733 8.88678 18.6604 8.95726C18.75 8.96261 18.8562 8.97115 18.9792 8.9829V5.59402C18.9792 5.51389 19.0125 5.47329 19.0802 5.47329H21.1927C21.2162 5.46994 21.24 5.47626 21.2589 5.49088C21.2779 5.5055 21.2904 5.52722 21.2937 5.55128C21.2948 5.55979 21.2948 5.56841 21.2937 5.57692V15.7447C21.2937 15.9402 21.3021 16.1517 21.3187 16.3814C21.3354 16.61 21.35 16.8162 21.3604 17C21.3626 17.0354 21.3542 17.0706 21.3363 17.101C21.3184 17.1313 21.292 17.1554 21.2604 17.1699V17.1699ZM18.701 10.9605C18.7948 10.9701 18.8875 10.9872 18.9781 11.0118V15.7073C18.858 15.7439 18.7344 15.7668 18.6094 15.7756C18.4642 15.7876 18.3186 15.7933 18.1729 15.7927C17.8794 15.7941 17.5876 15.7476 17.3083 15.6549C17.0443 15.5697 16.8033 15.4226 16.6042 15.2254C16.3965 15.0108 16.2363 14.7528 16.1344 14.469C16.0096 14.1162 15.9499 13.7427 15.9583 13.3675C15.9364 12.8893 16.0562 12.4155 16.3021 12.0085C16.524 11.6709 16.8271 11.3985 17.1823 11.2169C17.5469 11.032 17.949 10.937 18.3562 10.9412C18.4719 10.9434 18.5865 10.9487 18.701 10.9605Z" fill="white"/>
</svg>
