<svg width="27" height="25" viewBox="0 0 27 25" fill="none" xmlns="http://www.w3.org/2000/svg">
<path opacity="0.4" d="M1.01052 7.26562L0 8.65513H4.94335L5.32025 1.36161L1.01052 7.26562ZM21.1554 0.764509L14.1309 0L21.5432 8.21429L21.1554 0.764509V0.764509ZM5.63706 10.3962L5.02529 9.16853H0.0491604L12.3338 23.7723L5.63706 10.3962ZM5.74631 8.65513H21.2592L16.8074 3.71652L13.5082 0.0558036L5.74631 8.65513ZM21.9856 9.16295L14.6717 23.7723L26.9508 9.16853H21.9856V9.16295ZM22.1987 2.06473L21.6852 1.36161L21.7344 2.32701L22.0676 8.65513H27L22.1987 2.06473ZM5.70807 3.43192L5.45681 8.20871L12.8746 0L5.85009 0.764509L5.70807 3.43192ZM21.423 9.16295H5.58244L7.89844 13.7891L13.5082 25L21.423 9.16295V9.16295Z" fill="white"/>
</svg>
